<?xml version="1.0" encoding="utf-8"?>
<!-- Generator: Adobe Illustrator 16.0.0, SVG Export Plug-In . SVG Version: 6.00 Build 0)  -->
<!DOCTYPE svg PUBLIC "-//W3C//DTD SVG 1.1//EN" "http://www.w3.org/Graphics/SVG/1.1/DTD/svg11.dtd">
<svg version="1.1" id="Layer_1" xmlns="http://www.w3.org/2000/svg" xmlns:xlink="http://www.w3.org/1999/xlink" x="0px" y="0px"
	 width="126px" height="126px" viewBox="0 0 126 126" enable-background="new 0 0 126 126" xml:space="preserve">
<path d="M85.488,30.915c0.833-5.947,6.33-10.093,12.277-9.26c5.947,0.833,10.093,6.33,9.26,12.277s-6.331,10.094-12.278,9.26
	C88.8,42.359,84.655,36.862,85.488,30.915z M119.557,57.597l-10.432-1.569L97.591,45.691c-0.09-0.08-0.192-0.165-0.29-0.238
	c-0.355-0.271-0.74-0.478-1.137-0.63c-1.666-1.25-3.729-2-5.971-2c-0.012,0-0.025,0-0.038,0c-0.631,0.002-1.245,0.07-1.843,0.184
	c-1.281-0.259-2.663,0.023-3.771,0.896l-11.741,9.271l-0.309,0.244c-0.622,0.492-1.07,1.206-1.217,2.048l-1.431,8.264l-0.708,4.139
	l-0.721,4.371c-0.241,1.488,0.67,2.967,2.157,3.38c1.597,0.443,3.251-0.491,3.695-2.088l0.126-0.455l3.974-14.303l1.874-1.2
	l0.058,15.288c0.006,1.545,0.373,3.002,1.005,4.304l-0.4,13.246l-9.091,20.024c-0.68,1.512-0.125,3.338,1.341,4.187
	c1.563,0.906,3.567,0.372,4.474-1.192l11.58-19.988c0.228-0.398,0.389-0.865,0.44-1.352l0.039-0.37l0.941-8.943
	c0.838-0.03,1.649-0.16,2.421-0.384l5.657,7.809l3.246,20.581c0.266,1.655,1.761,2.876,3.466,2.755
	c1.803-0.129,3.161-1.695,3.032-3.498l-1.568-21.963c-0.037-0.491-0.182-0.998-0.444-1.455l-0.204-0.353L99.918,75.29
	c0.204-0.802,0.323-1.637,0.32-2.502l-0.051-13.582l4.678,3.552l0.347,0.263c0.518,0.395,1.166,0.627,1.867,0.626l12.034-0.028
	c1.471-0.003,2.761-1.078,2.986-2.577C122.348,59.388,121.209,57.846,119.557,57.597z M63.296,46.364
	c-2.456-1.783-4.143-3.568-4.215-3.644l-0.223-0.237l0.854-1.174l-1.662-1.207L43.457,50.988c-1.024,0.764-2.309,0.911-3.432,0.525
	l-1.418,11.604c0,0.002,0,0.004,0,0.007l9.734,10.146l0.246,0.257c0.892,0.929,1.227,2.207,1.023,3.384l-4.459,24.781
	c-0.319,1.778-2.021,2.961-3.799,2.641c-1.695-0.305-2.846-1.875-2.676-3.559l2.361-22.709l-8.201-7.088
	c-0.952,0.435-1.977,0.725-3.047,0.84l-0.271,7.104l-0.016,0.408c-0.019,0.502-0.154,0.988-0.366,1.408l-9.997,19.623
	c-0.82,1.611-2.792,2.254-4.404,1.432c-1.504-0.766-2.157-2.551-1.569-4.094l7.495-19.469l-0.534-11.271
	c-1.074-1.822-1.587-3.994-1.312-6.258l2.092-17.125l-3.085,0.859l-3.766,6.674l-2.289,4.132l-1.111,2.056L10.129,58.3l-0.234,0.463
	l-0.083,0.168l-0.013,0.011c0.004-0.015-0.009,0.021,0.001-0.015c-0.362,1.354-1.635,2.315-3.089,2.23
	c-1.665-0.096-2.936-1.523-2.84-3.187c0.013-0.179,0.039-0.358,0.077-0.536l0.065-0.264l0.033-0.11l0.088-0.269l0.138-0.383
	l0.241-0.624l0.466-1.152l0.937-2.228l1.898-4.392l3.853-8.726c0.398-0.9,1.131-1.547,1.988-1.857l0.337-0.121l9.818-3.523
	c1.763-2.034,4.323-3.313,7.123-3.426c-2.486-2.261-3.713-5.76-2.907-9.268c0.248-1.074,0.674-2.057,1.23-2.939
	c-0.31-0.183-0.419-0.566-0.242-1.329l0.519-2.255c0.584-2.521,3.101-4.097,5.62-3.512l10.05,2.318
	c2.528,0.586,4.097,3.102,3.515,5.625l-0.418,1.824c1.324,1.266,2.396,2.814,2,4.313c-0.353,1.332-1.822,0.863-3.483-0.207
	c-0.028,0.159-0.048,0.319-0.084,0.481c-0.983,4.251-4.65,7.178-8.797,7.416c2.382,2.102,3.724,5.301,3.31,8.691l-0.055,0.447
	l0.706,0.746l10.819-6.708l-2.104-1.585l2.104-2.793l3.188,2.4l1.2-0.743c1.418-0.88,3.281-0.442,4.16,0.976
	c0.671,1.082,0.558,2.42-0.157,3.388l1.484,1.077l-0.066,0.093l13.067,9.483l-0.611,0.842l-0.089,0.044
	C71.077,51.041,66.481,48.676,63.296,46.364z M9.899,58.318c-0.012,0.207-0.045,0.408-0.096,0.602
	c0.001-0.006,0.002-0.009,0.005-0.019c0.019-0.063,0.034-0.127,0.047-0.191C9.883,58.581,9.896,58.448,9.899,58.318z M53.29,35.65
	l2.04-1.265l-2.49-1.877l-1.346,1.787L53.29,35.65z M60.184,40.611l1.233-1.699l-0.899-0.651c-0.006,0.004-0.01,0.01-0.016,0.014
	l-1.745,1.302L60.184,40.611z M74.461,48.522l0.033-0.047l-12.432-9.021l-1.693,2.331l-0.022-0.017l-0.468,0.645
	c0.539,0.542,1.991,1.945,3.88,3.316C66.743,47.896,71.01,50.127,74.461,48.522z M64.194,41.927l0.612,3.863l0.415-0.066
	l-0.614-3.863L64.194,41.927z M65.313,42.739l0.613,3.862l0.416-0.065l-0.614-3.863L65.313,42.739z"/>
</svg>
