<?xml version="1.0" encoding="utf-8"?>
<!-- Generator: Adobe Illustrator 16.0.0, SVG Export Plug-In . SVG Version: 6.00 Build 0)  -->
<!DOCTYPE svg PUBLIC "-//W3C//DTD SVG 1.1//EN" "http://www.w3.org/Graphics/SVG/1.1/DTD/svg11.dtd">
<svg version="1.1" id="Layer_1" xmlns="http://www.w3.org/2000/svg" xmlns:xlink="http://www.w3.org/1999/xlink" x="0px" y="0px"
	 width="500px" height="500px" viewBox="0 0 500 500" enable-background="new 0 0 500 500" xml:space="preserve">
<g>
	<path d="M43.555,142.384c3.291,0.714,6.346,0.662,15.728-6.54c4.168-3.204,10.325-8.59,16.01-16.117l2.491-3.301
		c21.301-28.332,71.169-94.663,143.196-91.054c59.398,4.331,101.508,49.187,121.757,129.725c0.692,2.738,1.108,4.413,1.572,5.71
		c3.096,13.167,8.288,29.575,15.771,34.98c1.848,1.34,3.999,1.98,6.127,1.98c3.246,0,6.461-1.505,8.509-4.347
		c3.274-4.533,2.404-10.805-1.891-14.28c-2.069-2.68-5.959-13.888-8.276-23.913c-0.136-0.597-0.33-1.173-0.567-1.732
		c-0.195-0.686-0.568-2.18-0.908-3.517c-3.209-12.77-11.735-46.678-32.417-78.567c-26.712-41.183-63.142-63.718-108.283-66.97
		c-0.07-0.011-0.14-0.011-0.221-0.011c-83.2-4.249-137.817,68.38-161.132,99.39l-2.451,3.257
		c-6.383,8.44-13.925,13.694-16.524,15.215c-0.875,0.351-1.727,0.821-2.518,1.417c-3.263,2.472-4.857,6.689-3.979,10.685
		C36.428,138.384,39.554,141.509,43.555,142.384z"/>
	<path d="M48.223,250.067c34.618-9.417,66.601-28.597,68-29.437c45.162-27.656,86.126-71.235,86.469-71.646
		c16.91-19.369,41.931-37.94,61.446-31.966c11.492,3.519,19.46,9.777,23.681,18.605c5.056,10.563,4.663,24.853-1.075,39.198
		c-0.606,1.515-1.295,3.05-2.046,4.599c7.374,0.396,14.57,1.464,21.534,3.136c7.892-19.76,8.087-40.166,0.501-55.993
		c-6.753-14.137-19.363-24.372-36.447-29.605c-25.08-7.675-55.478,6.251-83.33,38.163c-0.354,0.392-40,42.09-81.631,67.583
		c-0.305,0.184-30.782,18.461-62.61,27.139c-5.589,1.515-8.885,7.286-7.364,12.866C36.866,248.299,42.631,251.6,48.223,250.067z"/>
	<path d="M158.13,299.305c0-4.156,0.213-8.263,0.627-12.312c-29.438,17.887-67.814,39.94-97.787,52.747
		c-5.327,2.28-7.796,8.434-5.522,13.767c1.705,3.987,5.576,6.37,9.65,6.37c1.377,0,2.777-0.276,4.122-0.843
		c27.386-11.717,61.274-30.706,89.523-47.555C158.338,307.475,158.13,303.414,158.13,299.305z"/>
	<path d="M232.639,49.151c-37.917,3.934-70.342,27.636-95.327,55.151c-4.757,5.246-9.028,10.879-13.631,16.25
		c-6.023,7.042-12.607,13.623-19.485,19.829c-7.069,6.386-12.791,10.948-21.127,15.746c-8.847,5.068-17.865,10.201-27.027,14.666
		c-3.153,1.54-5.865,2.534-9.41,3.601c-5.467,1.646-8.863,7.289-7.321,12.902c1.483,5.411,7.424,8.975,12.902,7.332
		c10.722-3.23,20.441-8.752,30.117-14.252c8.183-4.646,16.301-8.833,23.813-14.55c14.65-11.135,27.252-24.137,38.844-38.373
		c4.697-5.765,9.713-11.251,14.96-16.525c2.861-2.876,5.818-5.649,8.844-8.366c1.573-1.41,3.172-2.782,4.793-4.149
		c0.818-0.686,1.647-1.367,2.485-2.045c0.213-0.178,1.843-1.461,2.255-1.793c7.305-5.595,15.087-10.568,23.275-14.771
		c7.734-3.979,15.49-6.756,24.902-8.721c3.123-0.648,3.803-0.718,6.138-0.956c5.683-0.586,10.487-4.328,10.487-10.484
		C243.126,54.363,238.333,48.56,232.639,49.151z"/>
	<path d="M55.698,305.119c13.922-4.78,63.021-22.953,114.054-57.316c14.353-30.099,40.872-53.322,73.158-63.269
		c6.34-7.227,12.397-14.798,18.062-22.738c3.359-4.713,2.269-11.257-2.449-14.628c-4.716-3.363-11.27-2.267-14.635,2.448
		C182.104,236.231,70.609,277.819,48.882,285.292c-0.464,0.151-0.751,0.248-0.851,0.281c-5.417,2.063-8.145,8.115-6.092,13.529
		c1.588,4.192,5.576,6.764,9.814,6.764c1.184,0,2.396-0.194,3.574-0.616L55.698,305.119z"/>
	<path d="M175.026,360.654c-3.599-6.03-6.684-12.399-9.196-19.049c-3.44,2.251-7.009,4.598-10.725,7.045
		c-26.179,17.262-55.862,36.825-68.769,40.299c-5.592,1.513-8.906,7.262-7.402,12.853c1.261,4.689,5.494,7.764,10.125,7.764
		c0.902,0,1.817-0.113,2.725-0.356c16.185-4.366,44.692-23.156,74.873-43.044C169.384,364.367,172.188,362.519,175.026,360.654z"/>
	<path d="M314.81,418.924c-2.115-0.764-4.56-1.867-7.246-3.222c-9.571,2.418-19.445,3.667-29.371,3.667
		c-2.133,0-4.251-0.058-6.356-0.168c13.534,8.344,26.191,15.965,35.858,19.466c5.435,1.967,11.453-0.853,13.42-6.311
		C323.082,426.898,320.267,420.89,314.81,418.924z"/>
	<path d="M194.944,385.734c-14.76,9.119-34.594,23.167-60.247,41.904c-5.6,4.079-10.431,7.606-13.783,9.979
		c-4.725,3.35-5.854,9.887-2.518,14.619c2.054,2.891,5.29,4.437,8.577,4.437c2.091,0,4.204-0.627,6.041-1.918
		c3.484-2.464,8.376-6.045,14.047-10.168c14.189-10.367,46.716-34.112,65.317-44.916
		C206.14,395.565,200.303,390.897,194.944,385.734z"/>
	<path d="M279.395,471.061c-5.895-3.847-11.303-7.715-16.555-11.443c-17.191-12.291-32.06-22.903-48.355-20.066
		c-18.35,3.171-47.568,32.557-53.244,38.403c-4.028,4.166-3.917,10.806,0.243,14.836c2.036,1.961,4.666,2.955,7.286,2.955
		c2.744,0,5.483-1.064,7.537-3.193c14.047-14.512,34.003-30.991,41.745-32.33c7.65-1.319,19.229,6.916,32.611,16.467
		c5.155,3.684,11.001,7.845,17.268,11.94c4.847,3.166,11.352,1.799,14.517-3.053C285.608,480.721,284.235,474.232,279.395,471.061z"
		/>
	<path d="M459.031,455.969l-94.13-94.131c14.188-17.851,22.678-40.425,22.678-64.947c0-57.654-46.905-104.559-104.559-104.559
		c-57.653,0-104.558,46.905-104.558,104.559c0,57.653,46.905,104.558,104.558,104.558c18.336,0,35.581-4.75,50.579-13.074
		l96.513,96.513c3.993,3.993,9.226,5.989,14.459,5.989s10.467-1.997,14.459-5.989C467.017,476.902,467.017,463.954,459.031,455.969z
		 M231.328,351.167c-0.292,0.918-0.792,1.378-1.5,1.378c-0.158,0-0.303-0.03-0.44-0.076c-0.283-0.273-0.576-0.537-0.855-0.815
		c-0.071-0.137-0.142-0.275-0.198-0.444c-0.297-0.89-0.445-2.521-0.445-4.895c0-2.392,0.148-4.038,0.445-4.938
		c0.296-0.899,0.794-1.349,1.493-1.349c0.698,0,1.196,0.466,1.493,1.4c0.296,0.933,0.444,2.562,0.444,4.887
		C231.766,348.632,231.62,350.249,231.328,351.167z M349.93,335.513c-2.322,0.104-4.073,0.961-5.238,2.591
		c-1.183,1.656-1.797,4.223-1.854,7.677c-1.501,1.833-3.088,3.591-4.749,5.279v-15.267h-5.11l-7.206,5.871l2.942,3.618l2.383-1.967
		c0.526-0.469,0.966-0.918,1.321-1.349c-0.058,1.12-0.086,2.354-0.086,3.703v10.692c-13.392,11.123-30.583,17.822-49.312,17.822
		c-18.804,0-36.056-6.757-49.472-17.961c0.786-0.424,1.454-1,1.992-1.747c1.244-1.727,1.866-4.447,1.866-8.16
		c0-3.589-0.638-6.29-1.916-8.103c-1.277-1.813-3.165-2.72-5.663-2.72c-2.565,0-4.469,0.871-5.713,2.612
		c-1.048,1.467-1.648,3.648-1.814,6.526c-0.971-1.232-1.909-2.492-2.806-3.783c-0.307-1.021-0.713-1.904-1.229-2.636
		c-0.415-0.59-0.902-1.073-1.447-1.472c-5.081-8.409-8.606-17.857-10.172-27.946c0.094,0.156,0.185,0.315,0.287,0.46
		c1.272,1.804,3.163,2.706,5.67,2.706c2.564,0,4.469-0.864,5.713-2.591s1.866-4.447,1.866-8.161c0-3.588-0.639-6.289-1.916-8.103
		s-3.165-2.72-5.663-2.72c-2.565,0-4.469,0.871-5.713,2.612c-0.46,0.644-0.833,1.425-1.123,2.34
		c0.2-10.093,2.322-19.724,6.051-28.521c0.256,0.021,0.515,0.037,0.785,0.037c2.564,0,4.469-0.864,5.713-2.591
		c1.244-1.727,1.866-4.447,1.866-8.16c0-1.377-0.096-2.62-0.284-3.735c14.01-19.803,37.073-32.77,63.122-32.77
		c25.083,0,47.403,12.017,61.533,30.587l-1.556,1.268l2.942,3.617l1.328-1.096c0.798,1.191,1.557,2.411,2.29,3.648v8.945h4.552
		c3.989,9.316,6.205,19.565,6.205,30.324C360.314,310.955,356.521,324.141,349.93,335.513z M210.666,301.209
		c0-2.392,0.148-4.038,0.445-4.938c0.296-0.899,0.794-1.35,1.493-1.35c0.698,0,1.196,0.467,1.493,1.399
		c0.296,0.934,0.445,2.563,0.445,4.888c0,2.316-0.146,3.933-0.438,4.853c-0.292,0.918-0.792,1.378-1.5,1.378
		c-0.699,0-1.197-0.445-1.493-1.336C210.813,305.214,210.666,303.583,210.666,301.209z"/>
	<path d="M227.747,253.103c0.526-0.468,0.967-0.918,1.321-1.349c-0.057,1.12-0.086,2.354-0.086,3.703v11.11h5.756v-20.986h-5.11
		l-7.206,5.872l2.943,3.617L227.747,253.103z"/>
	<path d="M247.054,245.28c-2.565,0-4.469,0.871-5.713,2.613c-1.245,1.742-1.867,4.479-1.867,8.21c0,3.56,0.637,6.242,1.91,8.045
		c1.272,1.804,3.162,2.706,5.67,2.706c2.565,0,4.469-0.864,5.712-2.591c1.244-1.727,1.866-4.447,1.866-8.16
		c0-3.588-0.639-6.289-1.916-8.103S249.551,245.28,247.054,245.28z M248.554,260.955c-0.292,0.919-0.792,1.378-1.5,1.378
		c-0.699,0-1.196-0.445-1.493-1.335c-0.297-0.89-0.445-2.521-0.445-4.895c0-2.392,0.148-4.038,0.445-4.938
		c0.297-0.9,0.794-1.35,1.493-1.35c0.698,0,1.196,0.467,1.493,1.399c0.297,0.933,0.445,2.563,0.445,4.888
		C248.991,258.419,248.845,260.036,248.554,260.955z"/>
	<path d="M262.197,253.103c0.526-0.468,0.967-0.918,1.32-1.349c-0.058,1.12-0.086,2.354-0.086,3.703v11.11h5.756v-20.986h-5.11
		l-7.206,5.872l2.942,3.617L262.197,253.103z"/>
	<path d="M281.503,245.28c-2.565,0-4.469,0.871-5.712,2.613c-1.244,1.742-1.866,4.479-1.866,8.21c0,3.56,0.637,6.242,1.909,8.045
		c1.273,1.804,3.163,2.706,5.67,2.706c2.565,0,4.469-0.864,5.713-2.591c1.244-1.727,1.866-4.447,1.866-8.16
		c0-3.588-0.639-6.289-1.917-8.103S284.001,245.28,281.503,245.28z M283.004,260.955c-0.292,0.919-0.792,1.378-1.5,1.378
		c-0.698,0-1.196-0.445-1.493-1.335c-0.297-0.89-0.445-2.521-0.445-4.895c0-2.392,0.148-4.038,0.445-4.938
		c0.297-0.9,0.794-1.35,1.493-1.35c0.699,0,1.196,0.467,1.493,1.399c0.297,0.933,0.445,2.563,0.445,4.888
		C283.442,258.419,283.295,260.036,283.004,260.955z"/>
	<path d="M298.729,245.28c-2.564,0-4.469,0.871-5.713,2.613s-1.866,4.479-1.866,8.21c0,3.56,0.637,6.242,1.91,8.045
		c1.272,1.804,3.163,2.706,5.669,2.706c2.565,0,4.469-0.864,5.713-2.591c1.244-1.727,1.866-4.447,1.866-8.16
		c0-3.588-0.639-6.289-1.917-8.103C303.114,246.187,301.227,245.28,298.729,245.28z M300.229,260.955
		c-0.292,0.919-0.792,1.378-1.5,1.378c-0.699,0-1.196-0.445-1.493-1.335c-0.296-0.89-0.444-2.521-0.444-4.895
		c0-2.392,0.148-4.038,0.444-4.938c0.297-0.9,0.794-1.35,1.493-1.35c0.698,0,1.197,0.467,1.493,1.399
		c0.297,0.933,0.445,2.563,0.445,4.888C300.667,258.419,300.52,260.036,300.229,260.955z"/>
	<path d="M313.873,253.103c0.526-0.468,0.967-0.918,1.321-1.349c-0.057,1.12-0.086,2.354-0.086,3.703v11.11h5.756v-20.986h-5.11
		l-7.207,5.872l2.943,3.617L313.873,253.103z"/>
	<path d="M325.772,251.453l2.942,3.617l2.383-1.967c0.526-0.468,0.966-0.918,1.321-1.349c-0.058,1.12-0.086,2.354-0.086,3.703v11.11
		h5.756v-20.986h-5.11L325.772,251.453z"/>
	<path d="M229.828,290.386c-2.565,0-4.469,0.871-5.713,2.612c-1.244,1.742-1.866,4.479-1.866,8.21c0,3.561,0.636,6.242,1.909,8.046
		s3.163,2.706,5.67,2.706c2.565,0,4.469-0.864,5.713-2.591s1.866-4.447,1.866-8.161c0-3.588-0.638-6.289-1.916-8.103
		S232.326,290.386,229.828,290.386z M231.328,306.062c-0.292,0.918-0.792,1.378-1.5,1.378c-0.699,0-1.196-0.445-1.493-1.336
		c-0.297-0.889-0.445-2.521-0.445-4.895c0-2.392,0.148-4.038,0.445-4.938c0.296-0.899,0.794-1.35,1.493-1.35
		c0.698,0,1.196,0.467,1.493,1.399c0.296,0.934,0.444,2.563,0.444,4.888C231.766,303.525,231.62,305.142,231.328,306.062z"/>
	<path d="M246.207,311.674h5.756v-20.986h-5.11l-7.206,5.871l2.942,3.617l2.383-1.967c0.526-0.468,0.966-0.918,1.32-1.349
		c-0.058,1.12-0.086,2.354-0.086,3.703V311.674z"/>
	<path d="M264.278,290.386c-2.564,0-4.469,0.871-5.713,2.612c-1.244,1.742-1.866,4.479-1.866,8.21c0,3.561,0.636,6.242,1.909,8.046
		c1.273,1.804,3.163,2.706,5.67,2.706c2.565,0,4.469-0.864,5.713-2.591c1.245-1.727,1.866-4.447,1.866-8.161
		c0-3.588-0.639-6.289-1.916-8.103C268.664,291.293,266.776,290.386,264.278,290.386z M265.779,306.062
		c-0.292,0.918-0.792,1.378-1.5,1.378c-0.699,0-1.196-0.445-1.493-1.336c-0.296-0.889-0.444-2.521-0.444-4.895
		c0-2.392,0.148-4.038,0.444-4.938c0.297-0.899,0.794-1.35,1.493-1.35c0.698,0,1.196,0.467,1.493,1.399
		c0.296,0.934,0.444,2.563,0.444,4.888C266.216,303.525,266.07,305.142,265.779,306.062z"/>
	<path d="M274.097,296.559l2.942,3.617l2.383-1.967c0.526-0.468,0.966-0.918,1.32-1.349c-0.057,1.12-0.086,2.354-0.086,3.703v11.111
		h5.756v-20.986h-5.11L274.097,296.559z"/>
	<path d="M298.729,290.386c-2.564,0-4.469,0.871-5.713,2.612c-1.244,1.742-1.866,4.479-1.866,8.21c0,3.561,0.637,6.242,1.91,8.046
		c1.272,1.804,3.163,2.706,5.669,2.706c2.565,0,4.469-0.864,5.713-2.591s1.866-4.447,1.866-8.161c0-3.588-0.639-6.289-1.917-8.103
		C303.114,291.293,301.227,290.386,298.729,290.386z M300.229,306.062c-0.292,0.918-0.792,1.378-1.5,1.378
		c-0.699,0-1.196-0.445-1.493-1.336c-0.296-0.889-0.444-2.521-0.444-4.895c0-2.392,0.148-4.038,0.444-4.938
		c0.297-0.899,0.794-1.35,1.493-1.35c0.698,0,1.197,0.467,1.493,1.399c0.297,0.934,0.445,2.563,0.445,4.888
		C300.667,303.525,300.52,305.142,300.229,306.062z"/>
	<path d="M315.954,290.386c-2.565,0-4.469,0.871-5.713,2.612c-1.244,1.742-1.866,4.479-1.866,8.21c0,3.561,0.636,6.242,1.909,8.046
		c1.272,1.804,3.163,2.706,5.67,2.706c2.564,0,4.469-0.864,5.713-2.591s1.866-4.447,1.866-8.161c0-3.588-0.639-6.289-1.916-8.103
		S318.452,290.386,315.954,290.386z M317.454,306.062c-0.292,0.918-0.792,1.378-1.5,1.378c-0.699,0-1.197-0.445-1.493-1.336
		c-0.297-0.889-0.445-2.521-0.445-4.895c0-2.392,0.148-4.038,0.445-4.938c0.296-0.899,0.794-1.35,1.493-1.35
		c0.698,0,1.196,0.467,1.493,1.399c0.296,0.934,0.444,2.563,0.444,4.888C317.892,303.525,317.746,305.142,317.454,306.062z"/>
	<path d="M325.772,296.559l2.942,3.617l2.383-1.967c0.526-0.468,0.966-0.918,1.321-1.349c-0.058,1.12-0.086,2.354-0.086,3.703
		v11.111h5.756v-20.986h-5.11L325.772,296.559z"/>
	<path d="M350.404,290.386c-2.565,0-4.469,0.871-5.713,2.612c-1.245,1.742-1.866,4.479-1.866,8.21c0,3.561,0.637,6.242,1.909,8.046
		c1.273,1.804,3.163,2.706,5.67,2.706c2.564,0,4.469-0.864,5.713-2.591s1.866-4.447,1.866-8.161c0-3.588-0.638-6.289-1.916-8.103
		C354.79,291.293,352.902,290.386,350.404,290.386z M351.904,306.062c-0.292,0.918-0.792,1.378-1.5,1.378
		c-0.699,0-1.196-0.445-1.493-1.336c-0.296-0.889-0.444-2.521-0.444-4.895c0-2.392,0.148-4.038,0.444-4.938
		c0.297-0.899,0.794-1.35,1.493-1.35c0.698,0,1.196,0.467,1.493,1.399c0.296,0.934,0.444,2.563,0.444,4.888
		C352.342,303.525,352.196,305.142,351.904,306.062z"/>
	<path d="M247.054,335.493c-2.565,0-4.469,0.871-5.713,2.612c-1.245,1.742-1.867,4.479-1.867,8.211c0,3.56,0.637,6.242,1.91,8.046
		s3.162,2.706,5.67,2.706c2.565,0,4.469-0.863,5.712-2.591c1.244-1.727,1.866-4.447,1.866-8.16c0-3.589-0.639-6.29-1.916-8.103
		C251.439,336.399,249.551,335.493,247.054,335.493z M248.554,351.167c-0.292,0.918-0.792,1.378-1.5,1.378
		c-0.699,0-1.196-0.445-1.493-1.335c-0.297-0.89-0.445-2.521-0.445-4.895c0-2.392,0.148-4.038,0.445-4.938
		c0.297-0.899,0.794-1.349,1.493-1.349c0.698,0,1.196,0.466,1.493,1.4c0.297,0.933,0.445,2.562,0.445,4.887
		C248.991,348.632,248.845,350.249,248.554,351.167z"/>
	<path d="M256.872,341.665l2.942,3.618l2.383-1.967c0.526-0.469,0.967-0.918,1.32-1.349c-0.058,1.12-0.086,2.354-0.086,3.703v11.11
		h5.756v-20.986h-5.11L256.872,341.665z"/>
	<path d="M274.097,341.665l2.942,3.618l2.383-1.967c0.526-0.469,0.966-0.918,1.32-1.349c-0.057,1.12-0.086,2.354-0.086,3.703v11.11
		h5.756v-20.986h-5.11L274.097,341.665z"/>
	<path d="M291.322,341.665l2.943,3.618l2.383-1.967c0.526-0.469,0.966-0.918,1.321-1.349c-0.058,1.12-0.087,2.354-0.087,3.703v11.11
		h5.756v-20.986h-5.11L291.322,341.665z"/>
	<path d="M315.954,335.493c-2.565,0-4.469,0.871-5.713,2.612c-1.244,1.742-1.866,4.479-1.866,8.211c0,3.56,0.636,6.242,1.909,8.046
		c1.272,1.804,3.163,2.706,5.67,2.706c2.564,0,4.469-0.863,5.713-2.591c1.244-1.727,1.866-4.447,1.866-8.16
		c0-3.589-0.639-6.29-1.916-8.103C320.34,336.399,318.452,335.493,315.954,335.493z M317.454,351.167
		c-0.292,0.918-0.792,1.378-1.5,1.378c-0.699,0-1.197-0.445-1.493-1.335c-0.297-0.89-0.445-2.521-0.445-4.895
		c0-2.392,0.148-4.038,0.445-4.938c0.296-0.899,0.794-1.349,1.493-1.349c0.698,0,1.196,0.466,1.493,1.4
		c0.296,0.933,0.444,2.562,0.444,4.887C317.892,348.632,317.746,350.249,317.454,351.167z"/>
</g>
</svg>
