<?xml version="1.0" encoding="utf-8"?>
<!-- Generator: Adobe Illustrator 16.0.0, SVG Export Plug-In . SVG Version: 6.00 Build 0)  -->
<!DOCTYPE svg PUBLIC "-//W3C//DTD SVG 1.1//EN" "http://www.w3.org/Graphics/SVG/1.1/DTD/svg11.dtd">
<svg version="1.1" id="Layer_1" xmlns="http://www.w3.org/2000/svg" xmlns:xlink="http://www.w3.org/1999/xlink" x="0px" y="0px"
	 width="500px" height="500px" viewBox="0 0 500 500" enable-background="new 0 0 500 500" xml:space="preserve">
<g>
	<path d="M203.239,405.891c0-10.141-8.221-18.361-18.36-18.361H46.221c-10.139,0-18.36,8.22-18.36,18.361
		c0,3.195,0.818,6.199,2.255,8.816H3.746v38.067h223.607v-38.067h-26.369C202.42,412.089,203.239,409.086,203.239,405.891z"/>
	<path d="M179.644,91.97l117.157,74.395c9.111,4.643,20.429,1.678,26.02-7.129l5.622-8.85c5.939-9.354,3.171-21.75-6.181-27.69
		L208.338,50.354c-9.352-5.939-21.748-3.172-27.688,6.182l-5.622,8.851C169.438,74.193,171.566,85.698,179.644,91.97z"/>
	<path d="M496.202,376.179l-0.082-1.772l-0.145-1.671c-0.076-1.143-0.236-2.16-0.375-3.205c-0.563-4.176-1.521-7.731-2.694-10.946
		c-2.377-6.386-5.738-11.221-9.866-14.845c-1.027-0.913-2.126-1.713-3.218-2.528l-3.27-2.443c-2.172-1.643-4.387-3.218-6.587-4.816
		c-2.196-1.606-4.419-3.169-6.644-4.729c-2.217-1.571-4.445-3.125-6.691-4.651c-4.468-3.089-8.984-6.101-13.51-9.103l-6.811-4.464
		l-6.85-4.405c-4.58-2.911-9.167-5.814-13.785-8.667c-4.611-2.865-9.24-5.703-13.896-8.496l-13.979-8.364l-14.072-8.219
		l-14.15-8.096l-14.219-7.987l-14.287-7.882l-14.353-7.773c-4.802-2.566-9.599-5.137-14.433-7.653
		c-4.822-2.529-9.64-5.071-14.498-7.548l-4.398,6.928l-22.17-10.449l24.781-39.026l-117.156-74.395l-60.944,95.974l117.157,74.395
		l24.781-39.026l18.887,15.622l-4.4,6.928c4.309,3.343,8.657,6.62,12.998,9.911c4.331,3.304,8.699,6.552,13.063,9.807l13.139,9.686
		l13.211,9.577l13.276,9.474l13.345,9.361l13.422,9.242l13.514,9.095c4.51,3.026,9.045,6.009,13.602,8.964
		c4.546,2.966,9.123,5.882,13.707,8.792l6.898,4.324l6.936,4.266c4.642,2.818,9.289,5.625,13.985,8.357
		c2.337,1.383,4.689,2.739,7.055,4.078c2.358,1.349,4.718,2.697,7.106,4c2.383,1.312,4.75,2.647,7.159,3.912l3.603,1.922
		c1.201,0.64,2.393,1.296,3.657,1.837c5.036,2.194,10.841,3.18,17.63,2.614c3.409-0.304,7.034-0.949,11.054-2.216
		c1.005-0.317,1.992-0.606,3.06-1.023l1.574-0.58l1.639-0.68c2.185-0.91,4.523-2.063,7.059-3.522
		C496.259,381.151,496.307,378.545,496.202,376.179z"/>
	<path d="M71.643,265.623l113.922,72.341c9.354,5.939,21.75,3.172,27.689-6.181l5.621-8.851c5.592-8.808,3.462-20.311-4.615-26.583
		L97.104,221.953c-9.111-4.642-20.43-1.678-26.022,7.13l-5.62,8.85C59.521,247.287,62.289,259.684,71.643,265.623z"/>
</g>
</svg>
