<?xml version="1.0" encoding="utf-8"?>
<!-- Generator: Adobe Illustrator 16.0.0, SVG Export Plug-In . SVG Version: 6.00 Build 0)  -->
<!DOCTYPE svg PUBLIC "-//W3C//DTD SVG 1.1//EN" "http://www.w3.org/Graphics/SVG/1.1/DTD/svg11.dtd">
<svg version="1.1" id="Layer_1" xmlns="http://www.w3.org/2000/svg" xmlns:xlink="http://www.w3.org/1999/xlink" x="0px" y="0px"
	 width="126px" height="126px" viewBox="0 0 126 126" enable-background="new 0 0 126 126" xml:space="preserve">
<g>
	<circle cx="44.178" cy="20.552" r="12.461"/>
	<path d="M121.578,57.599l-17.53-8.424l-8.492-10.606c-0.091-0.114-0.194-0.231-0.298-0.338c-0.514-0.529-1.126-0.895-1.775-1.129
		c-1.295-0.952-2.823-1.603-4.484-1.857c2.042-0.595,3.867-1.729,5.298-3.32c0.894,0.313,1.708,0.08,2.364-0.976
		c3.785-6.091,1.912-14.097-4.176-17.881c-0.382-0.237-0.77-0.452-1.165-0.644c0.132-0.212,0.264-0.417,0.396-0.604
		c0.366-0.541,0.824-0.961,0.953-0.875c0.061,0.032-0.057,0.199-0.209,0.281c-0.157,0.083-0.231,0.091-0.174,0.16
		c0.036,0.051,0.238,0.201,0.327,0.282l0.217,0.165c-0.025-0.007,0.11,0.091,0.153,0.132l0.394,0.334l3.491,3.003
		c2.514,2.058,5.549,4.236,9.352,5.119c1.888,0.425,3.921,0.446,5.755-0.075c1.831-0.519,3.423-1.496,4.6-2.821
		c-1.777-0.015-3.356-0.122-4.76-0.5c-1.4-0.363-2.605-0.912-3.757-1.609c-2.292-1.379-4.397-3.324-6.849-5.357
		c-1.237-1.007-2.538-2.063-4.098-3.024L96.507,6.68l-0.356-0.203l-0.298-0.152c-0.616-0.325-1.138-0.519-1.884-0.7
		c-0.711-0.16-1.618-0.246-2.567-0.011c-0.949,0.228-1.805,0.791-2.335,1.372c-0.555,0.583-0.853,1.176-1.082,1.713
		c-0.22,0.54-0.369,1.042-0.451,1.524c-0.069,0.349-0.113,0.684-0.147,1.015c-4.917-0.669-9.998,1.515-12.787,6.002
		c-1.219,1.962-0.683,2.547,0.599,2.445c-0.824,1.911-1.125,4.013-0.829,6.127c0.725,5.17,4.887,9.167,9.954,9.808
		c-4.049,1.313-7.001,5.091-7.048,9.583l-0.14,13.456c-0.833,3.912-2.523,6.163-4.975,7.56c-0.066-0.819-0.408-1.618-1.05-2.229
		L54.5,48.164L44.529,35.71c-0.102-0.128-0.217-0.259-0.334-0.38c-0.586-0.604-1.284-1.031-2.027-1.293
		c-1.854-1.351-4.125-2.166-6.594-2.191c-0.041,0-0.081-0.001-0.121-0.001c-0.818,0-1.612,0.09-2.381,0.253
		c-0.759-0.114-1.554-0.07-2.336,0.17l-14.639,4.509l-0.448,0.138c-0.944,0.293-1.78,0.941-2.289,1.878L8.141,48.4l-2.579,4.837
		l-1.278,2.459L3.643,56.97l-0.342,0.713l-0.216,0.472c-0.17,0.401-0.299,0.83-0.379,1.25c-0.264,1.892,1.054,3.641,2.947,3.905
		c1.892,0.264,3.64-1.055,3.904-2.947c0.005,0.21-0.038,0.43-0.122,0.621l-0.032,0.069l0.018-0.029l0.036-0.058l0.071-0.116
		l0.297-0.487l0.695-1.097l1.46-2.242l3.001-4.505l4.943-7.297l4.094-0.834l-0.226,21.721c-0.013,1.239,0.178,2.431,0.531,3.552
		c-0.002,0.136-0.007,0.272,0,0.41l0.752,14.586l-8.305,25.042c-0.594,1.811,0.266,3.829,2.048,4.614
		c1.896,0.835,4.11-0.024,4.946-1.92L34.886,87.16c0.188-0.43,0.305-0.914,0.323-1.41l0.015-0.451l0.171-5.006l5.075,10.681
		l-4.91,24.248c-0.375,1.882,0.739,3.79,2.616,4.343c1.986,0.585,4.073-0.55,4.659-2.537l7.519-25.5
		c0.251-0.851,0.24-1.79-0.092-2.686l-0.15-0.402l-5.724-15.419c1.387-1.869,2.227-4.169,2.253-6.674l0.137-13.206l1.026,1.056
		l0.303,0.312c0.036,0.037,0.075,0.072,0.116,0.104l17.675,14.061c-1.586,2.173,4.508,7.808,11.963,10.861l0.307,2.807
		l-7.363,29.255c-0.53,1.616,0.237,3.415,1.825,4.114c1.691,0.745,3.666-0.021,4.411-1.712l9.917-29.552
		c0.176-0.404,0.279-0.859,0.294-1.325c0.983,0.354,4.316,0.704,5.286,1.044l-0.601,6.425l-4.378,25.931
		c-0.334,1.678,0.659,3.378,2.332,3.872c1.772,0.523,3.632-0.49,4.155-2.262l6.704-30.182c0.056-0.189,0.098-1.559,0.123-1.757
		c3.477,1.12,5.766,3.372,5.778,3.338c-0.602-12.361-9.018-35.188-9.018-35.188l-0.074-0.046l0.002-0.186l0.915,0.942l0.273,0.282
		c0.318,0.324,0.711,0.586,1.165,0.756l19.247,7.183c1.477,0.546,3.167-0.107,3.861-1.555
		C123.762,60.182,123.115,58.337,121.578,57.599z M75.147,25.705c-0.3-2.141,0.045-4.273,0.974-6.174
		c2.942-0.695,7.786-3.333,7.786-3.333s5.457,12.685,9.654,15.37c-1.665,1.775-3.866,2.924-6.311,3.266
		c-0.497,0.07-1.002,0.105-1.501,0.105C80.443,34.938,75.885,30.969,75.147,25.705z"/>
	<polygon points="74.051,36.151 72.82,34.98 70.048,39.125 	"/>
	<polygon points="71.326,31.12 66.753,33.111 71.73,32.77 	"/>
	<path d="M88.32,32.05c0-1.643-4.62-4.543-4.62-4.543c-4.571-3.402-4.619,1.333-4.619,2.976c0,1.644,2.068,2.977,4.619,2.977
		C86.252,33.459,88.32,33.693,88.32,32.05z"/>
</g>
</svg>
