<?xml version="1.0" encoding="utf-8"?>
<!-- Generator: Adobe Illustrator 16.0.0, SVG Export Plug-In . SVG Version: 6.00 Build 0)  -->
<!DOCTYPE svg PUBLIC "-//W3C//DTD SVG 1.1//EN" "http://www.w3.org/Graphics/SVG/1.1/DTD/svg11.dtd">
<svg version="1.1" id="Layer_1" xmlns="http://www.w3.org/2000/svg" xmlns:xlink="http://www.w3.org/1999/xlink" x="0px" y="0px"
	 width="500px" height="500px" viewBox="0 0 500 500" enable-background="new 0 0 500 500" xml:space="preserve">
<g>
	<path d="M114.26,436.584L99.023,483h301.953l-15.237-46.416H114.26z M161.629,474.404h-49.592l9.594-29.225h69.223
		C181.113,454.921,171.371,464.663,161.629,474.404z"/>
	<path d="M249.141,156.368c-66.461,0-120.338,53.877-120.338,120.338V424.55h242.396V276.707
		c0-66.461-53.877-120.338-120.338-120.338H249.141z M347.989,280.145c0,5.696-4.619,10.314-10.314,10.314
		c-5.696,0-10.315-4.619-10.315-10.314c0-41.708-33.932-75.641-75.641-75.641H250c-5.696,0-10.314-4.619-10.314-10.314
		c0-5.697,4.618-10.315,10.314-10.315h1.719C304.803,183.874,347.989,227.061,347.989,280.145z"/>
	<path d="M109.439,228.445c2.13-10.618-4.748-20.951-15.363-23.082L37.33,193.975c-10.617-2.129-20.949,4.749-23.08,15.364
		c-0.463,2.311-0.5,4.606-0.166,6.807c1.204,7.917,7.224,14.606,15.529,16.273l56.745,11.388
		C96.975,245.938,107.309,239.06,109.439,228.445z"/>
	<path d="M96.426,96.963l36.149,45.199c6.762,8.455,19.101,9.828,27.556,3.066c8.457-6.763,9.826-19.1,3.066-27.557l-36.148-45.199
		c-6.764-8.455-19.1-9.828-27.557-3.066c-5.673,4.537-8.157,11.581-7.138,18.28C92.855,90.974,94.199,94.179,96.426,96.963z"/>
	<path d="M252.453,114.065c10.825,0.254,19.806-8.315,20.061-19.14l-0.139-57.858c0.257-10.822-8.313-19.808-19.138-20.062
		c-10.825-0.254-19.807,8.315-20.061,19.138l0.138,57.86c-0.029,1.169,0.048,2.315,0.219,3.434
		C234.937,106.666,242.797,113.837,252.453,114.065z"/>
	<path d="M343.207,149.536c8.128,7.152,20.517,6.363,27.67-1.766l38.235-43.447c7.152-8.129,6.362-20.516-1.767-27.671
		c-8.127-7.153-20.516-6.362-27.669,1.766l-38.235,43.448c-3.986,4.528-5.505,10.38-4.664,15.912
		C337.446,142.173,339.608,146.368,343.207,149.536z"/>
	<path d="M485.911,220.438c-1.63-10.704-11.627-18.062-22.333-16.432l-57.216,8.707c-10.705,1.628-18.063,11.627-16.434,22.331
		c1.63,10.705,11.628,18.062,22.333,16.434l57.216-8.706C480.182,241.142,487.539,231.144,485.911,220.438z"/>
</g>
</svg>
