<?xml version="1.0" encoding="iso-8859-1"?>
<!-- Generator: Adobe Illustrator 17.0.0, SVG Export Plug-In . SVG Version: 6.00 Build 0)  -->
<!DOCTYPE svg PUBLIC "-//W3C//DTD SVG 1.1//EN" "http://www.w3.org/Graphics/SVG/1.1/DTD/svg11.dtd">
<svg version="1.1" id="Capa_1" xmlns="http://www.w3.org/2000/svg" xmlns:xlink="http://www.w3.org/1999/xlink" x="0px" y="0px"
	 width="64px" height="64px" viewBox="0 0 64 64" style="enable-background:new 0 0 64 64;" xml:space="preserve">
<g>
	<path d="M47.732-0.011c-8.322,0-15.092,6.77-15.092,15.092c0,1.689,0.291,3.308,0.805,4.826l-2.869,1.123
		c-1.134,0.444-1.239,1.361-0.234,2.049l6.489,3.976C36.357,27.178,36,27.59,36,28.102v5.795C36,34.506,36.494,35,37.102,35h8.467
		c0.034,0.895-0.111,2.089-0.841,3.276c-1.46,2.374-4.808,4.026-9.728,4.83v-9.004C35,33.494,34.506,33,33.898,33h-5.795
		C27.494,33,27,33.494,27,34.102v2.315l-4.178-6.818c-0.688-1.005-1.605-0.9-2.049,0.234l-1.123,2.869
		c-1.518-0.514-3.137-0.805-4.826-0.805c-0.966,0-1.908,0.1-2.824,0.274v4.104c0.903-0.238,1.846-0.378,2.824-0.378
		c6.116,0,11.092,4.976,11.092,11.091c0,6.116-4.976,11.092-11.092,11.092c-3.9,0-7.329-2.028-9.307-5.08H0.989
		c2.328,5.337,7.65,9.08,13.835,9.08c5.791,0,10.823-3.282,13.353-8.08h5.721C34.506,54,35,53.506,35,52.898v-6.755
		c6.143-0.919,10.275-3.031,12.283-6.294c1.077-1.75,1.322-3.494,1.285-4.848h7.33C56.506,35,57,34.506,57,33.898v-5.795
		c0-0.34-0.163-0.632-0.404-0.835c3.766-2.747,6.228-7.18,6.228-12.187C62.823,6.759,56.053-0.011,47.732-0.011z M47.732,26.172
		c-6.116,0-11.092-4.976-11.092-11.091c0-6.116,4.976-11.092,11.092-11.092c6.116,0,11.091,4.976,11.091,11.092
		C58.823,21.196,53.848,26.172,47.732,26.172z"/>
	<path d="M0,49.768v-5.558c-0.169,0.902-0.268,1.829-0.268,2.779C-0.268,47.939-0.169,48.865,0,49.768z"/>
</g>
</svg>
