<?xml version="1.0" encoding="utf-8"?>
<!-- Generator: Adobe Illustrator 16.0.0, SVG Export Plug-In . SVG Version: 6.00 Build 0)  -->
<!DOCTYPE svg PUBLIC "-//W3C//DTD SVG 1.1//EN" "http://www.w3.org/Graphics/SVG/1.1/DTD/svg11.dtd">
<svg version="1.1" id="Layer_1" xmlns="http://www.w3.org/2000/svg" xmlns:xlink="http://www.w3.org/1999/xlink" x="0px" y="0px"
	 width="500px" height="500px" viewBox="0 0 500 500" enable-background="new 0 0 500 500" xml:space="preserve">
<path d="M429.58,268.425c-1.674-2.137-10.977-12.967-29.608-20.072c-7.6-2.353-26.017-4.704-45.496-8.589l-29.358-7.366
	c-9.773-3.174-18.395-7.029-24.319-11.813c5.585-5.728,10.696-12.536,15.281-20.392c14.741-25.263,19.994-54.778,19.994-73.975
	c0-0.273-0.142-28.449-0.606-32.165c-0.34-2.714-0.826-5.382-1.435-8.001c12.738-0.199,23.007-10.569,23.007-23.355
	c0-12.91-10.464-23.375-23.375-23.375h-7.382c-10.722-22.154-33.416-37.436-59.68-37.436h-33.205
	c-26.264,0-48.958,15.282-59.68,37.436h-7.382c-12.91,0-23.374,10.465-23.374,23.375c0,12.792,10.276,23.167,23.023,23.356
	c-0.42,1.799-0.797,3.608-1.088,5.439c-0.761,4.772-0.97,34.439-0.97,34.727c0,19.196,5.253,48.711,19.993,73.975
	c4.585,7.856,9.696,14.664,15.281,20.392c-5.925,4.784-14.546,8.638-24.319,11.813l-29.357,7.366
	c-19.482,3.886-37.897,6.237-45.496,8.589c-18.633,7.105-27.936,17.935-29.608,20.072c-34.265,50.866-38.146,164.991-38.177,166.126
	c0.305,15.187,4.818,20.376,6.375,21.014c76.27,33.934,166.047,42.549,210.088,42.549c0.418,0,0.867-0.006,1.293-0.009
	c0.426,0.003,0.875,0.009,1.293,0.009c44.041,0,133.818-8.615,210.088-42.549c1.557-0.638,6.069-5.827,6.375-21.014
	C467.726,433.416,463.844,319.291,429.58,268.425z M211.393,90.095c-14.05,0-26.634,4.948-35.158,12.76
	c0.126-4.659,0.277-8.428,0.443-9.489c0.393-2.481,0.943-4.91,1.61-7.296h143.451c0.849,3.071,1.488,6.226,1.892,9.456
	c0.093,0.816,0.178,3.709,0.252,7.437c-8.525-7.874-21.161-12.867-35.275-12.867H211.393z M239.256,126.963
	c0,7.578-19.815,20.632-40.098,20.632c-14.119,0-20.416-6.364-20.416-20.632c0-11.184,13.855-20.631,30.258-20.631
	C225.399,106.332,239.256,115.779,239.256,126.963z M291.001,106.332c16.401,0,30.257,9.447,30.257,20.631
	c0,14.268-6.297,20.632-20.416,20.632c-20.284,0-40.098-13.054-40.098-20.632C260.744,115.779,274.601,106.332,291.001,106.332z
	 M194.223,194.182c-6.71-11.5-11.274-23.957-14.178-35.747c5.517,3.422,12.632,5.396,21.508,5.396
	c17.657,0,37.131-9.956,48.939-9.956s30.297,9.956,47.955,9.956c8.876,0,15.991-1.973,21.508-5.396
	c-2.903,11.79-7.468,24.248-14.178,35.747c-9.744,16.697-27.33,36.602-55.777,36.602S203.967,210.879,194.223,194.182z"/>
</svg>
